<svg version="1.2" xmlns="http://www.w3.org/2000/svg" viewBox="0 0 1640 295" width="1640" height="295">
	<title>Dự án mới</title>
	<style>
		.s0 { fill: #000000 } 
	</style>
	<path id="Front-end Developer" class="s0" aria-label="Front-end Developer"  d="m155.1 79h-66.2v52h53.6v12h-53.6v64h-12.6v-140h78.8zm57.4 39.4h-12q-3.6 0-6.8 1.4-3.2 1.3-5.5 3.7-2.4 2.3-3.7 5.6-1.4 3.1-1.4 6.7v71.2h-12v-100h4l6.5 10.1q4.1-5.5 10.3-8.7 6.2-3.4 13.6-3.4h7zm82.8 61.2q0 6-2.3 11.4-2.3 5.4-6.3 9.4-4 4-9.4 6.3-5.3 2.3-11.4 2.3h-8q-6 0-11.4-2.3-5.4-2.3-9.4-6.3-4-4-6.3-9.4-2.3-5.4-2.3-11.4v-45.1q0-6.1 2.3-11.5 2.3-5.3 6.3-9.4 4-4 9.4-6.2 5.4-2.3 11.4-2.3h8q6.1 0 11.4 2.3 5.4 2.2 9.4 6.2 4 4.1 6.3 9.4 2.3 5.4 2.3 11.5zm-12 0.6v-46.5q0-3.6-1.4-6.7-1.3-3.2-3.7-5.6-2.3-2.3-5.5-3.7-3.2-1.3-6.8-1.3h-8q-3.6 0-6.8 1.3-3.1 1.4-5.5 3.7-2.3 2.4-3.7 5.6-1.4 3.1-1.4 6.7v46.5q0 3.6 1.4 6.9 1.4 3.1 3.7 5.4 2.4 2.4 5.5 3.7 3.2 1.4 6.8 1.4h8q3.6 0 6.8-1.4 3.2-1.3 5.5-3.7 2.4-2.3 3.7-5.4 1.4-3.3 1.4-6.9zm102.8 26.8h-12v-73.3q0-3.6-1.3-6.7-1.4-3.2-3.8-5.6-2.3-2.3-5.5-3.7-3.1-1.3-6.8-1.3h-8q-3.6 0-6.8 1.3-3.1 1.4-5.5 3.7-2.3 2.4-3.7 5.6-1.3 3.1-1.3 6.7v73.3h-12.1v-100h4l6.6 10.1q4.1-5.5 10.2-8.7 6.3-3.4 13.6-3.4h3q6.1 0 11.5 2.4 5.3 2.2 9.3 6.2 4 4 6.3 9.4 2.3 5.4 2.3 11.4zm71.4 0h-10.9q-5.5 0-10.4-2-4.8-2.1-8.4-5.7-3.5-3.6-5.6-8.4-2.1-4.8-2.1-10.2v-62.2h-17.9v-11.5h17.9v-24l12-1.9v25.9h25.4v11.5h-25.4v62.8q0 3 1.1 5.6 1.2 2.6 3.1 4.5 2 2 4.6 3.1 2.7 1.1 5.7 1.1h10.9zm57.4-61.2h-37.4v-11.4h37.4zm88.9 33.8q0 6.1-2.3 11.5-2.3 5.3-6.3 9.3-4 4-9.4 6.4-5.3 2.2-11.4 2.2h-8q-6 0-11.4-2.2-5.4-2.4-9.4-6.4-4-4-6.3-9.3-2.3-5.4-2.3-11.5v-45.1q0-6 2.3-11.4 2.3-5.4 6.3-9.4 4-4 9.4-6.2 5.4-2.4 11.4-2.4h8q6.1 0 11.4 2.4 5.4 2.2 9.4 6.2 4 4 6.3 9.4 2.3 5.4 2.3 11.4v23.6h-54.8v22.2q0 3.6 1.4 6.9 1.4 3.1 3.7 5.4 2.3 2.4 5.5 3.7 3.2 1.4 6.8 1.4h8q3.6 0 6.8-1.4 3.2-1.3 5.5-3.7 2.4-2.3 3.7-5.4 1.4-3.3 1.4-6.9v-6.6l12 1.9zm-12-30.9v-14.9q0-3.6-1.4-6.7-1.3-3.2-3.7-5.6-2.3-2.3-5.5-3.7-3.2-1.3-6.8-1.3h-8q-3.6 0-6.8 1.3-3.2 1.4-5.5 3.7-2.3 2.4-3.7 5.6-1.4 3.1-1.4 6.7v14.9zm102.9 58.4h-12.1v-73.3q0-3.6-1.3-6.7-1.4-3.2-3.7-5.6-2.4-2.3-5.6-3.7-3.1-1.3-6.7-1.3h-8q-3.7 0-6.9 1.3-3.1 1.4-5.4 3.7-2.4 2.4-3.8 5.6-1.3 3.1-1.3 6.7v73.3h-12v-100h4l6.5 10.1q4.1-5.5 10.3-8.8 6.2-3.3 13.5-3.3h3.1q6 0 11.4 2.4 5.4 2.2 9.4 6.2 4 4 6.2 9.4 2.4 5.4 2.4 11.4zm90.8 0h-4l-6.7-10.1q-4.1 5.5-10.2 8.8-6.2 3.3-13.5 3.3h-3q-6.1 0-11.4-2.3-5.4-2.3-9.4-6.3-4-4-6.4-9.4-2.2-5.4-2.2-11.4v-45.1q0-6.1 2.2-11.5 2.4-5.3 6.4-9.3 4-4 9.4-6.3 5.3-2.3 11.4-2.3h3q6.7 0 12.5 2.7 5.8 2.7 9.9 7.6v-48.4h12zm-12-26.8v-46.5q0-3.6-1.4-6.7-1.4-3.2-3.7-5.6-2.4-2.3-5.6-3.7-3.1-1.3-6.7-1.3h-8q-3.6 0-6.9 1.3-3.1 1.4-5.4 3.7-2.4 2.4-3.7 5.6-1.4 3.1-1.4 6.7v46.5q0 3.6 1.4 6.9 1.3 3.1 3.7 5.4 2.3 2.4 5.4 3.7 3.3 1.4 6.9 1.4h8q3.6 0 6.7-1.4 3.2-1.3 5.6-3.7 2.3-2.3 3.7-5.4 1.4-3.3 1.4-6.9zm164.8-7.6q0 7.1-2.7 13.4-2.7 6.2-7.3 10.9-4.7 4.7-11.1 7.4-6.2 2.7-13.4 2.7h-44.3v-140.1h44.3q7.2 0 13.4 2.8 6.4 2.6 11.1 7.3 4.6 4.7 7.3 11 2.7 6.3 2.7 13.4zm-12.6 0v-71.2q0-4.7-1.7-8.7-1.8-4.1-4.9-7.1-3.1-3.1-7.2-4.9-4-1.7-8.6-1.7h-31.2v116h31.2q4.6 0 8.6-1.8 4.1-1.7 7.2-4.8 3.1-3 4.9-7 1.7-4.1 1.7-8.8zm105.4 6.9q0 6.1-2.4 11.5-2.2 5.3-6.2 9.3-4 4.1-9.4 6.4-5.4 2.2-11.4 2.2h-8q-6.1 0-11.4-2.2-5.4-2.3-9.4-6.4-4-4-6.4-9.3-2.2-5.4-2.2-11.5v-45.1q0-6 2.2-11.4 2.4-5.4 6.4-9.4 4-4 9.4-6.2 5.3-2.4 11.4-2.4h8q6 0 11.4 2.4 5.4 2.2 9.4 6.2 4 4 6.2 9.4 2.4 5.4 2.4 11.4v23.6h-54.8v22.2q0 3.6 1.4 6.9 1.3 3.1 3.7 5.4 2.3 2.4 5.4 3.7 3.3 1.4 6.9 1.4h8q3.6 0 6.7-1.4 3.3-1.3 5.6-3.7 2.3-2.3 3.7-5.4 1.4-3.3 1.4-6.9v-6.6l12 1.9zm-12-30.9v-14.9q0-3.6-1.4-6.7-1.4-3.2-3.7-5.6-2.3-2.3-5.6-3.7-3.1-1.3-6.7-1.3h-8q-3.6 0-6.9 1.3-3.1 1.4-5.4 3.7-2.4 2.4-3.7 5.6-1.4 3.1-1.4 6.7v14.9zm102.8-41.6l-35.4 100h-6l-35.4-100h12l26.1 75.8 0.4 5.1 0.3-5.1 26-75.8zm80.8 72.5q0 6.1-2.4 11.5-2.2 5.3-6.2 9.3-4 4-9.4 6.4-5.4 2.2-11.4 2.2h-8q-6.1 0-11.4-2.2-5.4-2.4-9.4-6.4-4-4-6.4-9.3-2.2-5.4-2.2-11.5v-45.1q0-6 2.2-11.4 2.4-5.4 6.4-9.4 4-4 9.4-6.2 5.3-2.4 11.4-2.4h8q6 0 11.4 2.4 5.4 2.2 9.4 6.2 4 4 6.2 9.4 2.4 5.4 2.4 11.4v23.6h-54.8v22.2q0 3.6 1.4 6.9 1.3 3.1 3.7 5.4 2.3 2.4 5.4 3.7 3.3 1.4 6.9 1.4h8q3.6 0 6.7-1.4 3.2-1.3 5.6-3.7 2.3-2.3 3.7-5.4 1.4-3.3 1.4-6.9v-6.6l12 1.9zm-12-30.9v-14.9q0-3.6-1.4-6.7-1.4-3.2-3.7-5.6-2.4-2.3-5.6-3.7-3.1-1.3-6.7-1.3h-8q-3.6 0-6.9 1.3-3.1 1.4-5.4 3.7-2.4 2.4-3.7 5.6-1.4 3.1-1.4 6.7v14.9zm52 58.4h-12v-140.1h12zm92.9-27.4q0 6.1-2.3 11.4-2.3 5.4-6.3 9.4-4 4-9.3 6.3-5.4 2.3-11.5 2.3h-8q-6 0-11.4-2.3-5.4-2.3-9.4-6.3-4-4-6.3-9.4-2.3-5.3-2.3-11.4v-45.1q0-6.1 2.3-11.4 2.3-5.4 6.3-9.4 4-4 9.4-6.3 5.4-2.3 11.4-2.3h8q6.1 0 11.5 2.3 5.3 2.3 9.3 6.3 4 4 6.3 9.4 2.3 5.3 2.3 11.4zm-12 0.7v-46.5q0-3.6-1.4-6.8-1.3-3.2-3.7-5.5-2.3-2.4-5.5-3.7-3.2-1.4-6.8-1.4h-8q-3.6 0-6.8 1.4-3.1 1.3-5.5 3.7-2.3 2.3-3.7 5.5-1.4 3.2-1.4 6.8v46.5q0 3.6 1.4 6.8 1.4 3.1 3.7 5.5 2.4 2.3 5.5 3.7 3.2 1.3 6.8 1.3h8q3.6 0 6.8-1.3 3.2-1.4 5.5-3.7 2.4-2.4 3.7-5.5 1.4-3.2 1.4-6.8zm102.8-0.7q0 6-2.3 11.4-2.3 5.4-6.3 9.4-4 4-9.3 6.3-5.4 2.3-11.5 2.3h-3q-6.7 0-12.5-2.8-5.7-2.7-9.8-7.6v48.5h-12.1v-140.1h4l6.6 10.2q4.1-5.6 10.2-8.8 6.3-3.3 13.6-3.3h3q6.1 0 11.5 2.3 5.3 2.3 9.3 6.3 4 4 6.3 9.3 2.3 5.4 2.3 11.5zm-12 0.6v-46.4q0-3.7-1.3-6.8-1.4-3.2-3.8-5.5-2.3-2.4-5.5-3.8-3.1-1.3-6.8-1.3h-8q-3.6 0-6.8 1.3-3.1 1.4-5.5 3.8-2.3 2.3-3.7 5.5-1.3 3.1-1.3 6.8v46.4q0 3.7 1.3 6.9 1.4 3.1 3.7 5.5 2.4 2.3 5.5 3.7 3.2 1.3 6.8 1.3h8q3.7 0 6.8-1.3 3.2-1.4 5.5-3.7 2.4-2.4 3.8-5.5 1.3-3.2 1.3-6.9zm102.9-0.6q0 6-2.4 11.4-2.2 5.4-6.2 9.4-4 4-9.4 6.3-5.4 2.3-11.4 2.3h-8q-6.1 0-11.5-2.3-5.3-2.3-9.3-6.3-4-4-6.4-9.4-2.2-5.4-2.2-11.4v-45.2q0-6 2.2-11.4 2.4-5.4 6.4-9.4 4-4 9.3-6.2 5.4-2.3 11.5-2.3h8q6 0 11.4 2.3 5.4 2.2 9.4 6.2 4 4 6.2 9.4 2.4 5.4 2.4 11.4v23.6h-54.8v22.2q0 3.7 1.3 6.9 1.4 3.1 3.8 5.5 2.3 2.3 5.4 3.7 3.2 1.3 6.9 1.3h8q3.6 0 6.7-1.3 3.2-1.4 5.6-3.7 2.3-2.4 3.7-5.5 1.3-3.2 1.3-6.9v-6.6l12.1 2zm-12.1-31v-14.8q0-3.7-1.3-6.8-1.4-3.2-3.7-5.5-2.4-2.4-5.6-3.8-3.1-1.3-6.7-1.3h-8q-3.7 0-6.9 1.3-3.1 1.4-5.4 3.8-2.4 2.3-3.8 5.5-1.3 3.1-1.3 6.8v14.8zm77.4-30.2h-12q-3.6 0-6.8 1.4-3.2 1.4-5.5 3.7-2.3 2.3-3.7 5.6-1.4 3.1-1.4 6.7v71.2h-12v-100h4l6.6 10.2q4.1-5.6 10.2-8.8 6.3-3.4 13.6-3.4h7z"/>
</svg>