<svg version="1.2" xmlns="http://www.w3.org/2000/svg" viewBox="0 0 1640 664" width="1640" height="664">
	<title>Dự án mới</title>
	<style>
		.s0 { fill: #de553e } 
	</style>
	<path id="Regards," class="s0" aria-label="Regards,"  d="m510.8 256.3q30.6-19.8 30.6-56.3 0-45.9-60.7-91.8l-2.7-1.3 2.7-0.5q5.8 0 18 5.9 0.9 0.9 1.8 0.4 1.3-0.4 3.1-0.9 2.7-5.4-13.5-9.4-6.3-0.9-11.2-1.4-5-0.9-9-0.9h-2.7q-37.8-22-89.1-24.3-72.5-2.7-125.6 25.7-17.1 9-30.6 21.6-13 12.6-23.4 30.6-20.2 34.6-20.2 72 0 26.5 14.8 45.4-16.2-6.2-36.4-7.6-41-2.7-70.2 21.1-31.5 24.8-29.3 65.3 5.4 75.6 88.7 75.6 62.5 0 98.5-22.1 47.3-27.4 89.1-114.7l24.3-51.3q27-56.7 42.3-78.3 29.7-41 70.2-50.9 51.3 34.2 51.3 77 0 4.9-0.4 10.3-0.5 5-2.3 10.8-13.9 61.2-69.3 56.7l-13.5-4.9q-4.9-1.4-7.6-2.7-2.3-1.8-3.2-2.7v2.2q-1.3-1.3-0.4-2.2-17.1-8.6-23.9-20.7 0 14.8 24.3 27 2.7 160.6 64.8 160.6 20.3 0 28.8-21.1 1.8-2.3 0.9-4.1-0.9-0.4-1.8-0.8-0.4-0.5-0.9-0.5-0.4 0-1.3 2.3-7.7 11.2-16.2 11.2-27.9 0-45.9-77-4.1-16.2-7.2-31.9-2.7-15.8-5-31.5 5.4 1.8 10.4 2.2 4.9 0.5 9.9 0.5 28.3 0 49-12.6zm-53.1-154.8q-17.1 3.6-33.7 15.3-16.2 11.7-33.3 32.8-8.1 9.5-16.7 23.4-8.5 13.5-18.4 30.7l-31.5 57.1q-25.7 27.9-60.3 27.9-32.9 0-56.7-22.5-16.2-14.9-16.2-44.5 0-19.9 9-36.5 24.7-52.2 74.7-78.8 47.2-25.1 106.6-22.5 21.2 0.9 40.1 5.4 19.3 4.5 36.4 12.2zm-145.8 179.5q-5.8 9.1-13 19.4-7.2 10.4-16.2 23.4-61.2 84.1-129.6 90.9-73.4-0.5-75.6-66.1-0.5-30.7 24.3-50 11.2-8.5 24.7-13 14-5 30.2-5.9 49-0.5 73.3 36.4 0.9 1.8 2.3 4.5 1.8 2.3 5.4 7.3-1.8-10-4.5-18-2.3-8.6-7.2-15.3 6.7 2.6 13.5 4 7.2 0.9 14.8 0.9 29.7 0 57.6-18.5zm348.8 61.7q0-5-5-5 0 0-13.5 18.5-35.1 52.7-66.1 52.7-18 0-18-23 0-22.5 6.7-29.3 12.6-9.4 23-16.2 10.8-7.2 18.9-12.1 40.9-22.9 40.9-44.6 0-21.6-22.9-21.6-18 0-41.9 18.5-50.4 39.1-50.4 85.5 0 20.3 11.7 35.1 11.7 14.9 32 14.9 40.5 0 83.2-70.2 0.5-1 0.9-1.8 0.5-1 0.5-1.4zm-35.1-42.8q-18 15.8-32.4 26.6-14 10.8-24.3 17.6 4.9-16.7 23.4-43.2 21.6-32 33.7-32 1.8 0 3.6 1.3 1.8 1.4 3.2 1.4 3.6 7.6 4 6.3-0.4 7.7-11.2 22zm144.9-0.4q0-40.5-33.3-40.5-24.3 0-52.7 27.4-43.2 42.8-43.2 90 0 40.5 33.3 40.5 7.7 0 17.6-3.5-21.2 36.4-42.3 68.8-21.2 32.4-44.1 60.8-84.2 104.4-185.9 106.1-32.4 0-53.5-16.6-21.2-17.1-22.5-49.5-0.9-15.7 5.4-28.8 6.7-13.1 19.3-22.5 23.9-18.4 55.4-18.9 50.4-2.2 73.8 35.1 4.9 6.3 5.8 9-6.3-52.6-79.6-58.5-38.7-2.7-68.9 21.1-31 25.3-28.3 64.9 5.4 74.6 99.4 74.6 178.2 0 321.3-290.6 6.3-14.4 9.9-22.1 3.6-7.6 4.1-8.5 9-21.2 9-38.3zm-23.9-9.4q0 11.7-4 25.6-18.9 40.5-39.2 77-12.1 12.1-24.7 12.1-15.8 0-15.8-22.5 0-20.7 8.6-41.8 8.5-21.6 25.2-44.6 20.2-25.6 36.4-25.6 13.5 0 13.5 19.8zm172.4 97.2l29.2-41.9q3.2-3.6 0-6.8-3.1-3.1-6.3 0.5-43.2 68.4-62.5 68.4-5 0-6.8-4.9-3.6-9 5.4-32.5 7.7-20.6 21.2-46.3 13.9-25.7 34.2-56.7-21.6-2.2-33.3 8.1l-2.7 2.7q-5.9-22.9-30.2-22.9-26.5-0.1-53.5 26.9-42.3 42.4-42.3 89.6 0 40.5 32.8 40.5 23 0 46.8-21.6 2.7 25.2 28.8 25.2 20.3 0 39.2-28.3zm-43.2-102.2q0 20.7-12.2 50.9-25.2 64.8-55.8 64.8-15.7 0-15.7-22.5 0-41.4 34.6-86.9 18.9-25.6 36.5-25.6 12.6 0 12.6 19.3zm64.8 59.4l2.7-2.7-0.9 2.3 10.3-10.4q4.1-22.9 12.2-32.4l2.7-2.7 0.4 0.9q3.6 1.4 6.8 3.2 3.6 1.3 6.7 2.2 15.3 0.9 28.4-1.3l-25.7 34.2-12.1 24.3q-5.9 11.7-5.9 19.8 0 35.5 30.2 35.5 18.9 0 43.2-27 20.7-22.9 31.9-44.5 1.4-1.4 1.4-1.8 0-4.1-4.1-4.1-2.2 0-4 1.8-38.3 59.4-60.3 66.2-16.2 0-16.2-11.3 0-4.5 2.2-12.1l8.1-23q14-39.6 63.9-90l-5.8-8.6-14.9 10.9q-0.9 0.4-1.3 1.3-0.5 0.9-1.4 1.8-8.1 5-18.9 7.2-10.3 1.8-22.9 1.8 5.4-5.8 8.1-10.3 3.1-4.5 3.1-9.5 0-6.3-5.8-11.7-5.4-5.8-11.7-5.8-4.1 0-8.6 4-9 7.7-14.4 13.5-4.9 5.8-6.7 9.5-2.7 10.8 2.2 18.4l-9.4 9.5q-10.8 9.4-13.5 40.9zm41.8-61.2q-2.2-2.3-2.2-6.3 0-2.7 2.7-8.1 2.7 0 4.9 2.3 0.9 5.3-5.4 12.1zm52.7 14l2.7-4.1q0 3.6-2.7 4.1zm-33.8 111.6q-0.4 0.4-1.8 0.4 0.5 0 0.9 0 0.5-0.4 0.9-0.4zm585.5-322.3q-4.5-74.6-99.9-74.6-168.3 0-305.1 260.5-8.1-13.5-27-13.5-25.7 0-53.1 27.5-42.8 42.7-42.8 90 0 40.5 33.3 40.5 24.3 0 49.1-23.9 4 22.5 28.3 22.5 18.9 0 38.7-28.3l29.7-41.9q3.2-3.6-0.9-6.7-2.2-3.2-5.4 0.4-39.1 62.6-59.8 67.5-10.4-5.8-8.1-24.3 2.2-9.4 4.5-16.2 2.7-7.2 4-12.1 7.7-14.4 11.7-27.5 57.6-115.2 109.4-181.8 94.9-121.5 199.8-122.8 32.8-0.5 53.5 16.6 21.2 16.7 22.5 49.5 0.9 15.8-5.8 28.4-6.3 12.6-18.9 22.5-11.7 9-25.7 13.9-13.5 5-29.7 5.4-43.6 1.8-73.8-35.5-2.2-2.3-5.4-9 5.9 53.1 79.2 58 40.5 3.6 68.9-20.2 31-24.3 28.8-64.8zm-423 203.4q0 9.9-3.6 24.3-4.5 10.3-8.1 20.2-3.6 9.5-5.9 18-23.8 52.2-50.8 52.2-14.9 0-14.9-22.5 0-20.7 8.6-41.8 8.5-21.6 25.2-44.6 20.2-25.6 36.4-25.6 13.1 0 13.1 19.8zm220.9 62.5q0.5-1.8 1.8-3.1 1.4-5.4-6.7-5.4-1.4 0-2.7 1.3-26.6 29.3-50.4 44.6 11.7-15.3 13.9-32.4 1.8-9.5-1.3-17.6-0.5-3.1-4.5-9.4-3.6-6.8-10.4-17.1-11.2-17.6-9.9-27.5 1.8-27 28.4-37.3-5.4-4.1-10.4-4.1-13 0-20.2 9l-41.9 50q-28.8 34.2-40.5 40.9l5 6.3q7.2-3.6 13-7.6 6.3-4.5 11.7-9.5 7.2-7.2 18.9-20.2 11.7-13.1 27.9-32.9-5.8 22.5 0 41.9 9.9 34.2 8.1 43.2-1.3 9-6.3 16.6-4.5 7.7-11.7 14-6.7 5.8-15.3 9.4-8.5 3.2-17.5 3.2-14 0-14-14.4 0-7.2 2.7-14 2.7-6.7 7.2-12.1 5-5.4 10.8-8.6 6.3-3.1 13.5-3.1 3.2 0 8.1 1.8 5 1.3 12.2 3.6-15.3-11.3-26.1-11.3-18.9 0-30.6 9.9-11.7 9.9-17.6 29.7-0.4 0.9-0.9 2.7-0.4 1.4-0.4 2.7 0 4.1 2.7 7.7 2.7 3.6 6.7 6.3 4.1 2.7 8.6 4.5 4.9 1.8 9 1.8 0.9 0 2.2 0.4 1.8 0.5 4.1 0.9h5.8q28.8 0 64.4-20.7 30.1-18 52.6-44.1zm41.4 38.7q-14.8-13.5-25.6-13.5-2.7 0-2.7 1.4-0.9 23.8 6.3 30.1-6.8 28.4-17.1 47.3-9.9 18.4-23 29.2l-6.7 6.8q-2.3 3.1-1.4 5.8 1.8 2.7 4.1 1.4 3.6-2.3 6.3-4.1 3.1-1.8 4.5-2.7l10.8-8.5q19.3-16.2 29.7-40.5 5.8-15.3 14.8-52.7z"/>
</svg>